PathFileType	4	(X/Y/Z)	arm26_elbow_flex_translated.trc
DataRate	CameraRate	NumFrames	NumMarkers	Units	OrigDataRate	OrigDataStartFrame	OrigNumFrames
120	120	79	3	mm	120	1	121
Frame#	Time	r_acromion			r_humerus_epicondyle			r_radius_styloid			
		X1	Y1	Z1	X2	Y2	Z2	X3	Y3	Z3	

1	0	-13.05452443	839.50547557	169.5054756	-12.55937962	502.5856204	199.9856204	-13.12468341	266.4303173	251.4203173	
2	0.008333333	-12.96064763	839.59935237	169.5993524	-12.56732433	502.5776757	199.9776757	-12.86702479	266.3996197	251.3825496	
3	0.016666667	-12.85342531	839.70657469	169.7065747	-12.57439418	502.5706058	199.9706058	-12.58261002	266.3701826	251.345015	
4	0.025	-12.73642902	839.82357098	169.823571	-12.58031211	502.5646879	199.9646879	-12.24699837	266.3416661	251.3065762	
5	0.033333333	-12.6135559	839.9464441	169.9464441	-12.58484621	502.5601538	199.9601538	-11.83747124	266.3139273	251.2661701	
6	0.041666667	-12.48889884	840.07110116	170.0711012	-12.58781879	502.5571812	199.9571812	-11.33375263	266.2870761	251.2228408	
7	0.05	-12.36661015	840.19338985	170.1933899	-12.58911335	502.5558866	199.9558866	-10.71857495	266.2615299	251.1757657	
8	0.058333333	-12.25076325	840.30923675	170.3092367	-12.58867917	502.5563208	199.9563208	-9.978059159000001	266.2380562	251.1242727	
9	0.066666667	-12.145217	840.4147829999999	170.414783	-12.58653327	502.5584667	199.9584667	-9.101892467000001	266.217796	251.067848	
10	0.075	-12.05348712	840.5065128799999	170.5065129	-12.58275972	502.5622403	199.9622403	-8.083303614	266.2022614	251.0061347	
11	0.083333333	-11.97862914	840.58137086	170.5813709	-12.57750643	502.5674936	199.9674936	-6.918849957	266.1933089	250.9389234	
12	0.09166666699999999	-11.92313656	840.63686344	170.6368634	-12.57097925	502.5740208	199.9740208	-5.608043639	266.1930914	250.8661353	
13	0.1	-11.88885783	840.6711421700001	170.6711422	-12.56343398	502.581566	199.981566	-4.152855989	266.2039952	250.7877997	
14	0.108333333	-11.87693478	840.68306522	170.6830652	-12.5551663	502.5898337	199.9898337	-2.557144446	266.2285740999999	250.7040283	
15	0.116666667	-11.88776455	840.67223545	170.6722354	-12.54650022	502.5984998	199.9984998	-0.82605009	266.2694864	250.6149878	
16	0.125	-11.92098642	840.63901358	170.6390136	-12.53777535	502.6072246	200.0072246	1.034587889	266.329446	250.5208721	
17	0.133333333	-11.97549376	840.58450624	170.5845062	-12.52933361	502.6156664	200.0156664	3.018760023	266.4111901	250.4218778	
18	0.141666667	-12.04947094	840.51052906	170.5105291	-12.5215058	502.6234942	200.0234942	5.120723399	266.5174671	250.318183	
19	0.15	-12.1404538	840.4195462	170.4195462	-12.51459871	502.6304013	200.0304013	7.335325965	266.6510417	250.209931	
20	0.158333333	-12.24541169	840.31458831	170.3145883	-12.508883	502.636117	200.036117	9.658207451999999	266.8147143	250.0972196	
21	0.166666667	-12.36084848	840.19915152	170.1991515	-12.50458267	502.6404173	200.0404173	12.0858783	267.0113476	249.9800963	
22	0.175	-12.48291899	840.07708101	170.077081	-12.50186624	502.6431338	200.0431338	14.61568794	267.243895	249.858559	
23	0.183333333	-12.60755706	839.95244294	169.9524429	-12.50084017	502.6441598	200.0441598	17.24570218	267.5154241	249.7325611	
24	0.191666667	-12.73061101	839.82938899	169.829389	-12.50154466	502.6434553	200.0434553	19.97451563	267.8291306	249.6020204	
25	0.2	-12.84798193	839.71201807	169.7120181	-12.50395211	502.6410479	200.0410479	22.80102652	268.1883389	249.4668304	
26	0.208333333	-12.95576019	839.60423981	169.6042398	-12.50796817	502.6370318	200.0370318	25.72420218	268.5964903	249.3268722	
27	0.216666667	-13.05035573	839.50964427	169.5096443	-12.51343546	502.6315645	200.0315645	28.74285944	269.0571166	249.1820268	
28	0.225	-13.12861757	839.43138243	169.4313824	-12.52013972	502.6248603	200.0248603	31.85547992	269.5738044	249.0321854	
29	0.233333333	-13.18793882	839.3720611799999	169.3720612	-12.52781822	502.6171818	200.0171818	35.06007332	270.150152	248.8772579	
30	0.241666667	-13.22634349	839.33365651	169.3336565	-12.53617006	502.6088299	200.0088299	38.35409503	270.7897239	248.7171788	
31	0.25	-13.24255234	839.31744766	169.3174477	-12.54486793	502.6001321	200.0001321	41.73441777	271.4960071	248.5519105	
32	0.258333333	-13.23602543	839.32397457	169.3239746	-12.55357097	502.591429	199.991429	45.19735198	272.2723721999999	248.3814437	
33	0.266666667	-13.2069802	839.3530198	169.3530198	-12.56193813	502.5830619	199.9830619	48.7387043	273.1220424000001	248.2057958	
34	0.275	-13.15638412	839.40361588	169.4036159	-12.56964151	502.5753585	199.9753585	52.35386195	274.0480719	248.025008	
35	0.283333333	-13.08592254	839.47407746	169.4740775	-12.57637922	502.5686208	199.9686208	56.03788978	275.0533331	247.8391406	
36	0.291666667	-12.99794255	839.56205745	169.5620575	-12.58188722	502.5631128	199.9631128	59.78562802	276.1405116	247.648269	
37	0.3	-12.89537473	839.66462527	169.6646253	-12.58594965	502.5590503	199.9590503	63.59178037	277.3121071	247.4524794	
38	0.308333333	-12.78163562	839.77836438	169.7783644	-12.58840733	502.5565927	199.9565927	67.45098525	278.5704373	247.2518652	
39	0.316666667	-12.66051385	839.89948615	169.8994862	-12.58916392	502.5558361	199.9558361	71.35786711	279.9176419	247.0465248	
40	0.325	-12.53604397	840.02395603	170.023956	-12.5881898	502.5568102	199.9568102	75.30706652000001	281.3556851	246.8365596	
41	0.333333333	-12.41237207	840.14762793	170.1476279	-12.58552312	502.5594769	199.9594769	79.29325201	282.8863545	246.6220748	
42	0.341666667	-12.29361763	840.26638237	170.2663824	-12.58126839	502.5637316	199.9637316	83.31111691	284.5112551	246.4031787	
43	0.35	-12.18373637	840.37626363	170.3762636	-12.57559236	502.5694076	199.9694076	87.35536691999999	286.2317995	246.1799851	
44	0.358333333	-12.08638841	840.47361159	170.4736116	-12.56871745	502.5762826	199.9762826	91.42070336	288.0491945	245.9526138	
45	0.366666667	-12.00481639	840.55518361	170.5551836	-12.56091308	502.5840869	199.9840869	95.50180650999999	289.9644245	245.7211931	
46	0.375	-11.94173749	840.61826251	170.6182625	-12.5524851	502.5925149	199.9925149	99.59332261	291.9782351	245.4858608	
47	0.383333333	-11.89925284	840.66074716	170.6607472	-12.54376379	502.6012362	200.0012362	103.6898568	294.0911157	245.2467659	
48	0.391666667	-11.87877761	840.68122239	170.6812224	-12.53509093	502.6099091	200.0099091	107.7859727	296.3032846	245.0040686	
49	0.4	-11.88099383	840.67900617	170.6790062	-12.52680639	502.6181936	200.0181936	111.8761988	298.6146754	244.7579416	
50	0.408333333	-11.90582767	840.6541723300001	170.6541723	-12.51923483	502.6257652	200.0257652	115.9550392	301.0249265	244.5085699	
51	0.416666667	-11.95245192	840.60754808	170.6075481	-12.51267298	502.632327	200.032327	120.0169899	303.5333723	244.2561501	
52	0.425	-12.01931354	840.54068646	170.5406865	-12.50737797	502.637622	200.037622	124.0565567	306.1390377	244.0008907	
53	0.433333333	-12.10418536	840.45581464	170.4558146	-12.50355733	502.6414427	200.0414427	128.0682921	308.8406454	243.7430098	
54	0.441666667	-12.20424032	840.35575968	170.3557597	-12.50136077	502.6436392	200.0436392	132.0468308	311.6366267	243.4827333	
55	0.45	-12.31614559	840.24385441	170.2438544	-12.50087438	502.6441256	200.0441256	135.9869071	314.5251238	243.2202942	
56	0.458333333	-12.43617363	840.12382637	170.1238264	-12.5021172	502.6428828	200.0428828	139.8833721	317.5039925	242.9559318	
57	0.466666667	-12.56032632	839.99967368	169.9996737	-12.50504055	502.6399594	200.0399594	143.7312106	320.5708072	242.689891	
58	0.475	-12.68446813	839.87553187	169.8755319	-12.50952986	502.6354701	200.0354701	147.5255578	323.7228666	242.4224216	
59	0.483333333	-12.80446393	839.7555360699999	169.7555361	-12.51540919	502.6295908	200.0295908	151.2617152	326.9572009	242.1537772	
60	0.491666667	-12.91631665	839.6436833499999	169.6436833	-12.52244815	502.6225518	200.0225518	154.9351667	330.2705802	241.8842144	
61	0.5	-13.01630051	839.54369949	169.5436995	-12.53037089	502.6146291	200.0146291	158.5415927	333.6595237	241.6139922	
62	0.5083333330000001	-13.10108504	839.45891496	169.458915	-12.53886692	502.6061331	200.0061331	162.0768848	337.1203111	241.3433707	
63	0.516666667	-13.16784609	839.39215391	169.3921539	-12.5476033	502.5973967	199.9973967	165.5371588	340.6489936	241.0726106	
64	0.525	-13.21435986	839.34564014	169.3456401	-12.55623766	502.5887623	199.9887623	168.9187668	344.2414072	240.801972	
65	0.533333333	-13.23907696	839.32092304	169.320923	-12.56443163	502.5805684	199.9805684	172.2183088	347.893186	240.5317137	
66	0.541666667	-13.24117408	839.31882592	169.3188259	-12.5718641	502.5731359	199.9731359	175.4326427	351.5997767	240.2620921	
67	0.55	-13.22058137	839.33941863	169.3394186	-12.5782438	502.5667562	199.9667562	178.5588933	355.3564537	239.993361	
68	0.558333333	-13.17798476	839.38201524	169.3820152	-12.58332072	502.5616793	199.9616793	181.5944597	359.1583351	239.7257698	
69	0.566666667	-13.11480314	839.44519686	169.4451969	-12.58689591	502.5581041	199.9581041	184.5370224	363.0003987	239.4595636	
70	0.575	-13.03314109	839.52685891	169.5268589	-12.58882924	502.5561708	199.9561708	187.384548	366.8774987	239.1949822	
71	0.583333333	-12.93571876	839.62428124	169.6242812	-12.58904497	502.555955	199.955955	190.1352931	370.7843827	238.9322589	
72	0.591666667	-12.82578128	839.7342187199999	169.7342187	-12.58753463	502.5574654	199.9574654	192.7878073	374.715709	238.6716208	
73	0.6	-12.70699065	839.85300935	169.8530093	-12.58435742	502.5606426	199.9606426	195.3409447	378.6660816	238.4132863	
74	0.608333333	-12.58330378	839.97669622	169.9766962	-12.57963784	502.5653622	199.9653622	197.7938734	382.6300861	238.1574634	
75	0.6166666669999999	-12.45884067	840.10115933	170.1011593	-12.57356085	502.5714391	199.9714391	200.1460702	386.6023084	237.9043499	
76	0.625	-12.33774716	840.22225284	170.2222528	-12.5663646	502.5786354	199.9786354	202.3973121	390.5773503	237.6541329	
77	0.6333333330000001	-12.22405686	840.33594314	170.3359431	-12.5583311	502.5866689	199.9866689	204.5476666	394.5498418	237.4069888	
78	0.641666667	-12.1215568	840.4384432000001	170.4384432	-12.54977517	502.5952248	199.9952248	206.5974779	398.5144466	237.1630843	
79	0.65	-12.03366124	840.52633876	170.5263388	-12.54103211	502.6039679	200.0039679	208.5473518	402.4658629	236.9225766	
